<?xml version="1.0" standalone="no"?>
<!DOCTYPE svg PUBLIC "-//W3C//DTD SVG 20010904//EN"
 "http://www.w3.org/TR/2001/REC-SVG-20010904/DTD/svg10.dtd">
<svg version="1.0" xmlns="http://www.w3.org/2000/svg"
 width="260.000000pt" height="260.000000pt" viewBox="0 0 260.000000 260.000000"
 preserveAspectRatio="xMidYMid meet">
<metadata>
Created by potrace 1.11, written by Peter Selinger 2001-2013
</metadata>
<g transform="translate(0.000000,260.000000) scale(0.100000,-0.100000)"
fill="#000000" stroke="none">
<path d="M10 2590 c0 -5 6 -10 14 -10 24 0 29 -33 8 -51 -17 -13 -19 -22 -13
-56 4 -22 11 -45 15 -51 4 -6 0 -35 -8 -63 -9 -28 -13 -56 -9 -62 11 -17 17
-67 17 -134 1 -35 3 -63 6 -63 9 0 -1 -154 -11 -164 -5 -6 -9 -18 -9 -27 0
-10 -6 -19 -13 -22 -9 -3 -9 -9 1 -28 9 -17 10 -33 3 -57 -11 -38 -4 -72 11
-50 7 10 8 8 7 -7 -3 -35 1 -45 15 -45 17 0 66 -45 66 -62 0 -7 7 -26 16 -43
15 -29 14 -31 -7 -45 -48 -31 -70 -56 -71 -80 -2 -38 13 -110 22 -105 5 3 6
-3 3 -14 -3 -10 0 -22 6 -25 6 -4 11 -18 11 -30 0 -13 7 -39 15 -57 l16 -34
-4 47 c-3 31 -1 45 6 41 6 -3 7 -1 3 6 -8 13 14 81 26 81 4 0 8 9 8 20 0 23
18 27 26 5 4 -8 11 -12 17 -8 6 4 8 0 4 -10 -3 -10 -2 -17 3 -17 6 0 10 -5 10
-12 0 -6 -9 -3 -21 8 -15 14 -20 15 -17 4 2 -8 -4 -15 -12 -15 -21 0 -35 -25
-20 -35 7 -4 10 -15 7 -24 -8 -21 18 -108 43 -139 11 -14 20 -30 20 -36 0 -18
-35 -13 -58 9 -27 26 -31 25 -24 -2 5 -21 37 -59 55 -66 4 -1 20 4 36 13 26
13 32 13 44 0 8 -8 26 -17 41 -21 14 -3 26 -9 26 -13 0 -10 -39 -11 -45 -1 -3
5 -12 7 -20 3 -9 -3 -15 1 -15 11 0 20 -7 20 -26 1 -10 -9 -11 -15 -4 -15 18
0 40 -27 40 -49 0 -25 19 -38 31 -20 12 20 17 8 12 -29 -3 -20 -11 -32 -22
-33 -39 -3 -44 -5 -48 -14 -3 -11 14 -15 91 -19 39 -1 51 -6 57 -21 17 -46 49
-184 54 -240 4 -33 14 -76 23 -95 22 -46 90 -160 110 -183 8 -9 12 -20 9 -23
-3 -4 1 -20 9 -36 17 -33 15 -84 -3 -81 -7 2 -17 -6 -23 -17 -6 -11 -19 -20
-29 -20 -24 0 -35 -14 -59 -75 -11 -27 -23 -58 -27 -67 -6 -16 -1 -18 39 -18
39 0 46 3 46 19 0 11 4 23 10 26 6 4 10 -5 10 -19 l0 -26 555 0 c416 0 554 3
553 12 -2 6 8 15 22 19 26 7 13 13 -27 11 -17 -1 -23 5 -23 19 0 13 6 19 17
17 11 -2 19 5 21 17 3 11 16 30 30 42 31 26 63 37 55 18 -5 -15 32 -39 46 -30
14 8 41 -6 41 -21 0 -8 5 -14 10 -14 6 0 10 7 10 15 0 21 40 18 68 -4 12 -11
22 -23 22 -28 0 -17 57 -76 67 -70 5 3 10 47 10 98 1 50 5 94 10 98 8 5 43 84
43 96 0 3 -9 5 -20 5 -11 0 -20 5 -20 10 0 6 -8 10 -17 10 -13 0 -14 -3 -6
-11 6 -6 9 -18 6 -26 -4 -11 -8 -12 -13 -3 -4 7 -33 14 -64 15 -31 2 -54 0
-51 -4 7 -12 -63 -19 -74 -8 -5 5 -17 5 -27 0 -11 -6 -32 -9 -49 -7 -16 1 -46
3 -65 4 -19 1 -27 4 -17 7 9 2 17 11 17 18 0 17 -26 10 -53 -13 -9 -8 -17 -13
-18 -11 -7 33 -3 52 12 60 11 5 16 16 13 24 -8 19 -24 19 -24 0 0 -9 -10 -15
-26 -15 -14 0 -23 -4 -19 -10 7 -11 -16 -50 -29 -50 -4 0 -3 6 3 13 8 11 5 19
-14 37 -15 14 -25 18 -25 11 0 -9 -4 -10 -12 -5 -7 5 -43 7 -80 4 l-68 -5 14
-28 c12 -22 13 -27 1 -27 -7 0 -20 7 -28 15 -13 12 -16 12 -20 -7 -4 -13 -11
-19 -21 -15 -8 3 -16 2 -18 -2 -2 -5 -28 0 -58 10 -30 10 -65 19 -76 19 -12 0
-27 7 -34 15 -7 8 -21 15 -31 15 -26 0 -69 21 -69 34 0 6 -5 4 -10 -4 -9 -13
-10 -13 -10 0 -1 18 -55 80 -70 80 -5 0 -10 -5 -10 -11 0 -6 -14 2 -31 19 -20
20 -39 29 -55 27 -13 -1 -24 2 -24 6 0 5 -9 9 -20 9 -24 0 -94 64 -118 109
-10 18 -22 33 -27 34 -13 0 -45 85 -45 119 0 14 -11 39 -24 55 -17 21 -22 36
-19 61 7 44 -6 144 -18 137 -5 -4 -9 -1 -9 4 0 6 5 11 10 11 13 0 13 37 1 45
-5 3 -12 -3 -14 -12 -2 -10 -4 28 -4 85 1 75 -2 105 -12 111 -10 6 -9 10 4 15
12 4 16 14 13 31 -4 19 -2 23 7 15 8 -7 11 1 11 30 0 22 3 43 8 47 10 11 45
-38 39 -54 -3 -7 -2 -21 2 -30 6 -17 7 -17 20 0 14 19 9 57 -7 57 -5 0 -6 4
-3 10 3 5 1 19 -5 30 -7 14 -8 20 0 20 6 0 13 -7 16 -15 4 -10 13 -13 25 -10
11 4 19 2 19 -4 0 -18 57 -41 99 -41 22 0 44 -6 48 -13 4 -7 28 -13 53 -14 25
0 94 -4 154 -7 102 -5 136 0 136 23 0 3 -42 5 -92 4 -75 -2 -87 0 -60 8 39 12
40 16 5 31 -37 16 -66 18 -80 6 -26 -21 -229 36 -227 64 1 10 -8 18 -22 21
-13 2 -24 0 -24 -5 0 -5 -4 -7 -10 -3 -5 3 -7 12 -4 19 5 13 49 11 69 -4 12
-9 157 -27 275 -35 102 -7 120 -9 194 -25 61 -12 103 -7 76 10 -13 8 -12 12 5
24 25 19 30 19 48 1 9 -8 17 -10 19 -5 2 5 20 11 40 12 22 2 38 8 38 16 0 6
-5 12 -11 12 -7 0 -9 10 -5 24 5 21 2 25 -22 30 -15 4 -41 18 -57 32 -29 24
-29 25 -5 18 24 -6 24 -6 5 10 -11 8 -30 16 -42 16 -14 0 -23 6 -23 15 0 9 -7
18 -15 21 -8 4 -15 12 -15 20 0 8 -7 14 -15 14 -7 0 -18 6 -22 13 -15 24 -161
107 -189 107 -7 0 -19 9 -27 20 -16 23 -98 44 -139 35 -15 -4 -38 -21 -50 -38
-23 -34 -103 -117 -111 -117 -3 0 -3 8 0 19 3 10 0 22 -6 25 -6 4 -11 12 -11
17 0 6 4 8 8 5 4 -2 14 -1 22 5 9 5 10 9 4 9 -15 0 -27 46 -19 71 4 10 11 19
16 19 18 0 35 24 35 48 0 24 -11 30 -19 10 -4 -10 -6 -10 -6 0 -1 6 -5 12 -10
12 -5 0 -8 -6 -7 -14 0 -8 -2 -15 -6 -15 -32 -3 -38 1 -34 22 2 12 9 21 15 20
5 -2 8 3 5 11 -10 25 18 30 37 8 20 -26 29 -28 29 -7 0 8 -7 15 -15 15 -20 0
-19 36 1 44 9 3 31 6 50 6 20 0 34 5 34 13 0 13 45 37 70 37 8 0 25 7 37 15
12 8 34 16 49 17 15 2 31 10 37 19 6 9 16 15 22 12 7 -2 15 3 19 13 6 16 8 16
25 0 17 -16 20 -16 35 -1 9 9 21 13 27 9 6 -3 15 -1 19 7 7 10 16 10 48 -3 36
-14 42 -14 55 0 13 13 20 13 47 2 24 -10 36 -10 53 -1 18 9 34 9 72 0 28 -6
124 -13 215 -15 211 -4 293 -15 398 -55 13 -5 34 -9 48 -9 14 0 35 -11 48 -25
13 -14 28 -25 35 -25 6 0 11 -5 11 -11 0 -5 4 -8 9 -5 5 4 13 -8 17 -26 3 -18
14 -40 24 -48 9 -8 21 -26 25 -39 4 -14 21 -43 37 -65 38 -53 56 -94 79 -186
21 -83 25 -135 9 -125 -5 3 -10 -1 -10 -10 0 -9 4 -14 9 -11 5 3 11 0 13 -7 8
-20 -1 -150 -11 -160 -5 -5 -5 -25 0 -45 8 -39 17 -132 18 -194 1 -21 6 -38
11 -38 6 0 10 33 10 79 0 91 16 226 30 256 26 54 40 113 40 169 0 49 4 65 20
79 11 9 24 17 28 17 4 0 7 19 7 43 -2 50 2 64 19 70 8 3 11 -6 8 -30 -3 -25
-1 -33 9 -31 8 2 17 7 21 12 4 6 13 4 22 -3 14 -12 16 -10 16 14 0 21 -4 26
-18 23 -12 -4 -18 1 -19 14 -2 15 1 17 11 9 7 -6 16 -8 19 -4 4 3 7 183 7 400
l0 393 -36 0 c-20 0 -43 -7 -52 -17 -16 -16 -17 -16 -20 0 -3 16 -91 17 -1243
17 -819 0 -1239 -3 -1239 -10z m626 -695 c2 -11 -1 -27 -6 -35 -9 -13 -11 -13
-20 0 -5 8 -10 25 -10 38 0 29 32 27 36 -3z m1914 15 c0 -5 -8 -10 -17 -10
-15 0 -16 2 -3 10 19 12 20 12 20 0z m-1960 -69 c0 -11 -4 -23 -10 -26 -6 -4
-10 5 -10 19 0 14 5 26 10 26 6 0 10 -9 10 -19z m-30 -61 c0 -5 -5 -10 -11
-10 -5 0 -7 5 -4 10 3 6 8 10 11 10 2 0 4 -4 4 -10z m4 -45 c13 -20 13 -25 1
-35 -13 -10 -15 -8 -15 16 0 19 -3 25 -9 16 -6 -10 -10 -10 -20 2 -15 18 -6
37 14 30 7 -3 21 -16 29 -29z m369 16 c16 -6 33 -11 38 -11 6 0 7 -5 3 -12 -5
-8 0 -9 15 -5 25 6 81 -21 81 -40 0 -7 8 -13 18 -13 29 0 132 -106 132 -136 0
-21 3 -24 21 -19 15 5 20 3 17 -6 -6 -19 -49 -21 -68 -4 -9 9 -25 13 -34 9 -9
-3 -22 -2 -29 3 -37 29 -217 47 -307 30 -101 -18 -130 -20 -130 -7 0 7 -6 10
-13 7 -19 -7 -32 14 -35 63 -2 25 -8 47 -13 48 -5 2 -9 15 -9 28 0 31 30 33
31 2 0 -15 2 -18 6 -8 3 8 12 19 19 23 8 4 14 14 14 21 0 8 11 17 25 20 14 4
25 11 25 17 0 13 155 5 193 -10z m-338 -68 c-10 -55 -17 -31 -8 28 4 33 9 45
11 30 2 -13 1 -39 -3 -58z m-84 10 c-12 -20 -14 -14 -5 12 4 9 9 14 11 11 3
-2 0 -13 -6 -23z m94 -133 c-3 -5 -15 -10 -26 -10 -11 0 -17 5 -14 10 3 6 15
10 26 10 11 0 17 -4 14 -10z m292 -36 c-3 -3 -12 -4 -19 -1 -8 3 -5 6 6 6 11
1 17 -2 13 -5z m-362 -18 c17 -12 17 -13 -9 -20 -35 -9 -69 14 -39 25 26 11
27 10 48 -5z m53 -35 c3 -8 -1 -12 -9 -9 -7 2 -15 10 -17 17 -3 8 1 12 9 9 7
-2 15 -10 17 -17z m-40 -22 c-2 -6 -8 -10 -13 -10 -5 0 -11 4 -13 10 -2 6 4
11 13 11 9 0 15 -5 13 -11z m-248 -220 c0 -6 -4 -7 -10 -4 -5 3 -10 11 -10 16
0 6 5 7 10 4 6 -3 10 -11 10 -16z m12 -48 c20 -37 14 -44 -23 -25 -32 16 -32
16 -23 38 9 24 27 19 46 -13z m38 -236 c0 -8 -4 -15 -9 -15 -5 0 -11 7 -15 15
-3 9 0 15 9 15 8 0 15 -7 15 -15z m10 -35 c0 -5 -7 -10 -15 -10 -8 0 -15 5
-15 10 0 6 7 10 15 10 8 0 15 -4 15 -10z m1051 -623 c-1 -12 -15 -9 -19 4 -3
6 1 10 8 8 6 -3 11 -8 11 -12z"/>
<path d="M757 2003 c-4 -3 -7 -11 -7 -17 0 -6 5 -5 12 2 6 6 9 14 7 17 -3 3
-9 2 -12 -2z"/>
<path d="M1924 1939 c-17 -5 -37 -16 -44 -24 -7 -8 -21 -15 -30 -15 -19 0
-120 -86 -120 -101 0 -5 7 -9 16 -9 10 0 14 -6 10 -15 -3 -8 -1 -15 3 -15 5 0
11 6 14 13 9 24 152 88 209 93 89 9 93 10 92 27 -1 9 -2 23 -3 31 -1 10 -13
15 -39 14 -22 0 -48 2 -58 5 -10 3 -33 1 -50 -4z"/>
<path d="M2146 1881 c-4 -7 -5 -15 -2 -18 9 -9 19 4 14 18 -4 11 -6 11 -12 0z"/>
<path d="M2520 1716 c0 -8 8 -16 18 -18 28 -6 63 4 59 16 -6 17 -38 20 -48 4
-6 -10 -9 -10 -9 0 0 6 -4 12 -10 12 -5 0 -10 -6 -10 -14z"/>
<path d="M1658 1693 c-17 -4 -23 -25 -19 -67 1 -14 -4 -17 -18 -13 -13 3 -21
-1 -24 -14 -3 -10 -16 -23 -29 -28 -22 -9 -22 -10 7 -11 23 0 26 -3 15 -10
-12 -8 -12 -10 2 -15 26 -10 88 14 88 33 0 13 -2 14 -8 4 -5 -7 -16 -10 -25
-6 -23 8 -21 24 2 24 10 0 21 9 24 20 3 11 11 20 19 20 12 0 38 42 38 62 0 8
-42 9 -72 1z"/>
<path d="M2530 1678 c0 -5 16 -8 35 -8 19 0 35 3 35 8 0 4 -16 7 -35 7 -19 0
-35 -3 -35 -7z"/>
<path d="M1880 1601 c-8 -5 -32 -11 -52 -15 -21 -4 -38 -12 -38 -18 0 -6 -9
-8 -20 -5 -13 3 -20 0 -20 -9 0 -8 -3 -13 -7 -12 -5 1 -19 -4 -33 -12 -14 -8
-36 -13 -48 -11 -21 2 -23 0 -17 -21 4 -12 12 -29 17 -35 15 -19 64 -16 108 7
22 11 52 22 67 25 109 18 263 51 269 58 4 4 15 7 25 7 17 0 35 17 28 25 -2 2
-22 6 -43 10 -28 6 -37 5 -32 -4 4 -6 1 -11 -9 -11 -10 0 -13 5 -9 11 5 9 -1
10 -21 5 -17 -4 -31 -3 -35 4 -5 7 -19 8 -48 1 -25 -5 -42 -5 -42 0 0 11 -20
11 -40 0z"/>
<path d="M1324 1592 c5 -8 76 -4 76 4 0 2 -18 4 -41 4 -22 0 -38 -4 -35 -8z"/>
<path d="M2122 1485 c-14 -16 -9 -18 25 -9 13 4 20 10 17 15 -8 13 -27 10 -42
-6z"/>
<path d="M1883 1463 c-21 -4 -50 -30 -42 -37 2 -2 38 2 79 8 44 7 70 15 63 19
-7 5 -17 6 -22 2 -5 -3 -12 -1 -16 5 -6 10 -22 11 -62 3z m34 -19 c-3 -3 -12
-4 -19 -1 -8 3 -5 6 6 6 11 1 17 -2 13 -5z"/>
<path d="M1719 1429 c-12 -7 -12 -9 1 -10 8 -1 18 -1 23 0 4 0 7 -3 7 -9 0 -5
14 -10 30 -10 21 0 30 5 30 16 0 12 -6 15 -22 11 -12 -3 -29 -2 -38 3 -9 5
-22 5 -31 -1z"/>
<path d="M2010 1410 c-11 -7 -4 -10 25 -10 29 0 36 3 25 10 -8 5 -19 10 -25
10 -5 0 -17 -5 -25 -10z"/>
<path d="M1020 1406 c0 -2 7 -6 15 -10 8 -3 15 -1 15 4 0 6 -7 10 -15 10 -8 0
-15 -2 -15 -4z"/>
<path d="M1952 1392 c-12 -2 -20 -8 -17 -13 8 -12 55 -12 55 0 0 14 -11 18
-38 13z"/>
<path d="M1850 1370 c0 -5 19 -10 43 -10 31 0 38 3 27 10 -20 13 -70 13 -70 0z"/>
<path d="M1203 1182 c-17 -9 -39 -28 -48 -42 -9 -14 -35 -39 -57 -55 -22 -17
-59 -56 -83 -88 -24 -32 -46 -56 -48 -55 -9 5 -47 -35 -47 -49 0 -7 -7 -14
-15 -14 -8 -1 -21 -2 -27 -3 -7 0 -14 -10 -16 -20 -3 -15 0 -18 17 -13 13 3
24 -1 30 -10 7 -13 11 -12 24 7 l16 23 9 -34 c9 -31 10 -32 13 -9 1 14 2 31 2
38 -1 6 3 12 8 12 4 0 11 16 15 35 6 31 14 40 36 36 4 0 5 6 2 14 -5 11 1 15
20 15 16 0 26 6 26 15 0 14 11 19 37 16 6 -1 13 6 15 16 3 13 8 7 18 -19 8
-21 22 -40 32 -44 10 -3 18 -10 18 -15 0 -6 13 -15 29 -20 21 -8 29 -16 26
-30 -3 -16 2 -19 31 -19 23 0 33 -4 28 -11 -4 -7 0 -9 13 -5 11 4 69 8 129 9
108 3 180 21 152 38 -8 5 3 11 30 15 26 4 42 12 42 20 0 8 9 14 19 14 33 0 81
33 81 57 0 21 -1 21 -62 7 -35 -8 -81 -21 -103 -29 -22 -8 -58 -16 -80 -18
-21 -2 -41 -9 -43 -16 -5 -16 -28 -14 -71 8 -34 18 -181 60 -225 65 -10 1 -22
9 -27 18 -10 19 10 78 28 78 6 0 14 9 18 19 3 11 20 29 38 40 31 20 31 21 7
20 -14 0 -39 -8 -57 -17z m137 -302 c13 -8 13 -10 -2 -10 -9 0 -20 5 -23 10
-8 13 5 13 25 0z"/>
<path d="M530 1170 c0 -5 5 -10 11 -10 5 0 7 5 4 10 -3 6 -8 10 -11 10 -2 0
-4 -4 -4 -10z"/>
<path d="M1843 1070 c-11 -16 -10 -18 2 -13 9 3 24 -4 35 -17 25 -29 68 -51
75 -39 4 5 -1 9 -9 9 -10 0 -13 6 -9 17 5 12 3 14 -7 8 -8 -5 -11 -3 -8 6 3 8
-9 21 -29 31 -40 22 -36 22 -50 -2z"/>
<path d="M590 1046 c0 -9 5 -16 10 -16 6 0 10 4 10 9 0 6 -4 13 -10 16 -5 3
-10 -1 -10 -9z"/>
<path d="M2355 1040 c-3 -5 -1 -10 4 -10 6 0 11 5 11 10 0 6 -2 10 -4 10 -3 0
-8 -4 -11 -10z"/>
<path d="M566 994 c-9 -23 -7 -87 3 -102 5 -8 8 13 9 52 1 68 -1 78 -12 50z"/>
<path d="M1707 895 c-5 -11 0 -15 16 -15 12 0 18 4 12 8 -5 4 -13 11 -16 15
-4 4 -9 1 -12 -8z"/>
<path d="M1519 835 c-3 -2 -37 -5 -75 -6 -38 -1 -73 -4 -79 -7 -5 -3 -25 -7
-44 -9 -19 -2 -40 -8 -46 -12 -5 -5 -26 -12 -45 -16 -19 -4 -53 -16 -74 -26
-22 -11 -47 -19 -57 -19 -9 0 -19 -7 -23 -15 -3 -8 -12 -15 -21 -15 -8 0 -15
-6 -15 -14 0 -7 -7 -19 -15 -26 -25 -21 -19 -82 11 -103 14 -10 32 -16 40 -13
9 3 14 -1 14 -13 0 -17 11 -20 78 -26 42 -3 91 -7 108 -9 18 -2 67 3 110 10
44 8 135 14 204 13 196 -1 232 6 294 55 16 13 18 20 8 41 -10 21 -9 27 8 37
25 16 29 88 5 88 -8 0 -20 10 -26 22 -8 14 -14 18 -17 10 -3 -9 -11 -7 -30 6
-40 28 -53 31 -154 37 -51 3 -107 8 -124 10 -17 3 -33 3 -35 0z m-178 -136 c7
-23 7 -23 8 -1 1 19 7 22 49 23 26 1 52 0 57 -1 16 -3 105 -1 161 5 55 5 82
-10 70 -40 -8 -22 -56 -20 -57 3 -1 15 -2 15 -6 -1 -4 -15 -11 -18 -31 -12
-15 3 -42 6 -59 5 -21 0 -33 4 -33 12 0 11 -2 11 -8 0 -5 -7 -21 -15 -35 -18
-21 -3 -27 0 -27 13 -1 17 -1 17 -11 0 -6 -10 -8 -21 -6 -24 3 -3 51 -5 106
-6 73 0 102 -4 105 -14 4 -9 12 -10 28 -4 31 11 48 4 48 -20 0 -15 -4 -18 -17
-11 -15 8 -307 9 -338 1 -23 -5 -95 15 -95 26 0 7 8 12 18 11 13 -1 16 5 14
25 -3 28 22 63 41 56 6 -2 14 -14 18 -28z m379 1 c0 -5 -2 -10 -4 -10 -3 0 -8
5 -11 10 -3 6 -1 10 4 10 6 0 11 -4 11 -10z m110 -13 c0 -7 -11 -14 -25 -15
-14 -1 -25 3 -25 8 0 5 6 7 14 4 8 -3 17 -1 21 5 8 15 15 14 15 -2z m-674 -22
c4 -8 16 -15 28 -16 12 0 15 -3 8 -6 -16 -6 -62 16 -62 29 0 14 20 9 26 -7z
m570 -32 c-10 -10 -19 5 -10 18 6 11 8 11 12 0 2 -7 1 -15 -2 -18z m-668 -8
c-3 -3 -13 -2 -22 1 -14 5 -15 9 -4 15 13 8 36 -6 26 -16z"/>
<path d="M1350 658 l-25 -9 28 -16 c33 -17 36 -16 28 13 -5 18 -10 20 -31 12z"/>
<path d="M2365 780 c4 -6 11 -8 16 -5 14 9 11 15 -7 15 -8 0 -12 -5 -9 -10z"/>
<path d="M2321 694 c0 -11 3 -14 6 -6 3 7 2 16 -1 19 -3 4 -6 -2 -5 -13z"/>
<path d="M2311 644 c0 -11 3 -14 6 -6 3 7 2 16 -1 19 -3 4 -6 -2 -5 -13z"/>
<path d="M2297 605 c-4 -8 -2 -17 3 -20 6 -4 10 3 10 14 0 25 -6 27 -13 6z"/>
<path d="M2215 600 c-3 -5 -1 -10 4 -10 6 0 11 5 11 10 0 6 -2 10 -4 10 -3 0
-8 -4 -11 -10z"/>
<path d="M1030 495 c0 -7 57 -35 71 -35 7 0 10 2 8 5 -9 8 -79 35 -79 30z"/>
<path d="M1552 389 c2 -7 10 -15 17 -17 8 -3 12 1 9 9 -2 7 -10 15 -17 17 -8
3 -12 -1 -9 -9z"/>
<path d="M1725 320 c-3 -5 -1 -10 4 -10 6 0 11 5 11 10 0 6 -2 10 -4 10 -3 0
-8 -4 -11 -10z"/>
<path d="M2094 145 c2 -16 9 -43 15 -58 6 -15 10 -31 10 -35 -1 -4 -1 -17 0
-29 1 -26 31 -32 31 -7 0 28 -30 120 -46 140 -14 18 -14 17 -10 -11z"/>
</g>
</svg>
